<svg xmlns="http://www.w3.org/2000/svg" width="64" height="64"><rect id="backgroundrect" width="100%" height="100%" x="0" y="0" fill="none" stroke="none"/><defs><clipPath id="A"><path d="M0 792h612V0H0z" id="svg_1"/></clipPath><clipPath id="B"><path d="M0 792h612V0H0z" id="svg_2"/></clipPath><clipPath id="C"><path d="M96.008 715.93h88.3v-62.176h-88.3z" id="svg_3"/></clipPath><clipPath id="D"><path d="M0 792h612V0H0z" id="svg_4"/></clipPath><clipPath id="E"><path d="M0 792h612V0H0z" id="svg_5"/></clipPath><clipPath id="F"><path d="M0 792h612V0H0z" id="svg_6"/></clipPath><clipPath id="G"><path d="M0 792h612V0H0z" id="svg_7"/></clipPath><clipPath id="H"><path d="M121.202 708.378h45.9v-45.86h-45.9z" id="svg_8"/></clipPath><clipPath id="I"><path d="M0 792h612V0H0z" id="svg_9"/></clipPath><clipPath id="J"><path d="M40.403 726.188h212.402V664.37H40.403z" id="svg_10"/></clipPath><clipPath id="K"><path d="M0 792h612V0H0z" id="svg_11"/></clipPath><clipPath id="L"><path d="M39.52 688.644H238.9v-73.818H39.52z" id="svg_12"/></clipPath></defs><g class="currentLayer" style=""><title>Layer 1</title><g id="svg_13"><g clip-path="url(#A)" stroke-width="0" id="svg_14"><path d="M51.584290331999995,27.406530298000007 c0.47075529600000005,5.483823688000001 -8.15946127,10.703144716 -19.27600284,11.656840262000001 s-20.506386000000003,-2.7193251000000003 -20.979518848,-8.203148788 s8.15946127,-10.703739104 19.27600284,-11.65743465 s20.506386000000003,2.7193251000000003 20.979518848,8.203743176 " fill="#bbe6fb" stroke-width="0" id="svg_15"/></g><g clip-path="url(#B)" stroke-width="0" id="svg_16"><g clip-path="url(#C)" opacity=".35" stroke-width="0" id="svg_17"><path d="M30.931090495999996,19.845914937999993 c-4.240363992000001,-0.068949008 -9.202315016,1.6146550020000001 -12.894356078000001,3.191269172 a10.66629266,-10.66629266 0 0 1 -0.591118866,3.5059976180000003 c0,6.504982272000001 5.873742216,11.778986996 13.119629130000002,11.778986996 s13.119629130000002,-5.274004724 13.119629130000002,-11.778986996 c0,-2.058662838 -0.589632896,-3.9928013900000003 -1.623570822,-5.676405400000001 c-2.9541083599999998,-0.45916473 -7.0137784000000005,-0.9510208000000001 -11.129915300000002,-1.020564196 " fill="#fff" stroke-width="0" id="svg_18"/></g></g><g clip-path="url(#D)" stroke-width="0" id="svg_19"><path d="M30.565244682,19.84442896799999 c-2.3478326000000003,-0.14324750800000002 -6.393831716,1.08178616 -9.767875198,2.3032535000000003 a10.027325560000001,-10.027325560000001 0 0 1 -0.7973715020000001,3.9232579940000005 c0,5.6995865320000005 5.167609272000001,10.320061650000001 10.634195708,10.320061650000001 c5.430625962000001,0 10.23536136,-4.627904968 10.634195708,-10.320061650000001 c0.12957658400000002,-1.8535989780000002 -0.5052298000000001,-3.6002081160000006 -1.394434248,-5.10579292 c-3.49797338,-0.616083162 -7.209926440000001,-0.99262796 -9.308710468000001,-1.12042138 " fill="#fff" stroke-width="0" id="svg_20"/></g><g clip-path="url(#E)" fill="#373535" stroke-width="0" id="svg_21"><path d="M24.540825108,25.322605969999984 c0.28827818,-0.637778324 0.7242617780000001,-0.950129218 1.1471688400000002,-1.4847812240000002 c-0.04695665200000001,-0.12660464400000002 -0.149785776,-0.54089308 -0.149785776,-0.684140588 a1.16202854,-1.16202854 0 0 0 1.160839764,-1.160839764 a1.15608466,-1.15608466 0 0 0 0.42795936,0.08261993200000001 c1.92135921,-1.464274838 4.450777344,-2.1026475500000004 6.992974820000001,-1.534412622 a9.064417,-9.064417 0 0 0 0.6835462,0.18515186200000003 c-2.512180882,-0.348311368 -5.34354812,0.541487468 -7.2699596280000005,2.096109282 c0.05884441200000001,0.13878959800000001 0.22200391800000005,0.535543588 0.22200391800000005,0.69543396 c0,0.6410474580000001 -0.41488282400000004,0.7970743080000001 -1.055930282,0.7970743080000001 a1.16500048,-1.16500048 0 0 0 -0.4160716,-0.07727044000000001 c-0.435092016,0.5842834040000001 -0.968258052,1.6940058000000002 -1.2291943840000001,2.393006088 c1.065143296,0.952803964 2.027457468,1.298143392 3.281616148,1.7668183300000002 c-0.0029719400000000006,-0.05943880000000001 0.04309313000000001,-0.11501407800000002 0.04309313000000001,-0.17593884800000004 c0,-1.9326525820000002 1.70143565,-3.503322872 3.6346826200000004,-3.503322872 c1.732046632,0 3.1663048760000003,1.259508172 3.4462616240000004,2.9119068120000002 c0.864240152,-0.5498089 1.69994968,-0.9712299919999999 2.336836422,-1.7831640000000002 c-0.148597,-0.17831640000000004 -0.30908176000000004,-0.6945423780000001 -0.30908176000000004,-0.947157278 c0,-0.5816086580000001 0.47194407200000005,-1.053255536 1.05355273,-1.053255536 c0.082322738,0 0.161376342,0.011887760000000002 0.23834958800000003,0.029719400000000003 c0.323347072,-0.6645257840000001 0.5646686,-1.368875564 0.7233701960000001,-2.0952177 c-3.0224629800000002,-2.2378708200000004 -8.870349318,-1.932355388 -8.870349318,-1.932355388 s-4.653463652,-0.24280749800000004 -7.803720052,1.2927939 c0.21011615800000003,1.5156893999999999 0.816094724,2.96302418 1.7100542760000002,4.18449152 m14.444817176,-0.8749391360000001 a1.9466207,-1.9466207 0 0 0 0.42201548,0.526330574 c0.28233430000000004,0.5052298000000001 -0.28441465800000004,0.97331035 -0.866023316,0.97331035 a1.040179,-1.040179 0 0 0 -0.17296690800000003,-0.017534446000000006 c-0.6553127700000001,1.024130524 -1.8030759980000002,2.3374308100000003 -2.822748612,3.0016594 c1.56324044,0.25618122800000004 3.037917068,0.88266618 4.21123898,1.85003265 c0.8544327500000001,-1.5305491000000002 1.50974552,-3.7446444 1.50974552,-5.619046958 c0,-1.4265312 -0.630942862,-2.476814796 -1.5834496320000002,-3.24535848 c-0.049928592000000015,0.765571744 -0.4585703420000001,1.83665892 -0.697811512,2.533876044 m-12.688995024,9.692685116 c0.520981082,-1.43841896 1.8024816100000003,-2.5534908480000005 3.014735936,-3.534231048 c-0.17742481800000004,-0.24280749800000004 -0.44341344800000004,-0.84403096 -0.5542668100000001,-1.128742812 c-1.47854015,-0.449654522 -2.7867881380000004,-1.2913079299999999 -3.8040832000000004,-2.405488236 l-0.024369908000000006,0.09629085600000002 a7.6884087800000005,-7.6884087800000005 0 0 1 -0.13076536000000002,2.551113296 a1.52460522,-1.52460522 0 0 0 1.24375689,1.498452148 c0,0.44579100000000005 -0.3878381700000001,1.0838665180000002 -0.688895692,1.362931684 c0.3269134,0.706132944 0.550403288,1.046717268 0.9415105920000001,1.5596741120000002 m-0.08915820000000002,1.207499222 c-0.6241074000000001,-0.6181635200000001 -1.051175178,-1.850329844 -1.454467436,-2.62422302 a1.52460522,-1.52460522 0 0 0 -0.23181132000000002,0.019614804000000007 c-0.8428421840000001,0 -1.7258055580000002,-0.70732172 -1.52609119,-1.5257939960000002 c0.11055616800000002,-0.452923656 0.423204256,-0.74892888 0.932297578,-0.9964914820000002 c-0.11887760000000001,-0.938241458 -0.14740822400000003,-2.28690783 0.07043497800000001,-3.262298538 c0.05943880000000001,-0.27936236000000003 0.19466207000000005,-0.41012772000000003 0.28233430000000004,-0.675521962 c-0.93021722,-1.3611485200000002 -1.5305491000000002,-3.1502564 -1.5305491000000002,-4.919155088 c0,-0.06478829200000001 0.0029719400000000006,-0.12868500200000002 0.004755104000000001,-0.19317610000000004 c-1.5715618720000002,0.7881584880000001 -2.749936082,2.02983502 -2.749936082,3.984479958 c0,4.323578312 2.4904857200000006,8.56513108 6.195306124,10.227337122 l0.008024238000000003,-0.03506889200000001 m9.109887682,-5.9735994 c-0.47551040000000006,1.361742908 -1.7733565980000003,2.3398083620000003 -3.2988534,2.3398083620000003 a3.48311368,-3.48311368 0 0 0 -2.159708798,-0.74892888 c-1.226519638,0.955181516 -2.3389167800000004,2.63313884 -2.904774156,4.088795052 c0.25380367600000003,0.27341848 0.4309313,0.4977999500000001 0.715345958,0.742985 c0.8579990780000001,0.22348988800000005 2.039642422,0 2.968373672,0 c3.7357285800000004,0 7.044389382,-1.6619088480000002 8.941378684,-4.576193212 c-1.261291336,-0.8737503600000001 -2.7490445,-1.704704784 -4.26176196,-1.843197188 " stroke-width="0" id="svg_22"/></g><g clip-path="url(#F)" fill="#1287b1" stroke-width="0" id="svg_23"><path d="M24.44512864,25.82813296399999 a8.4551693,-8.4551693 0 0 0 1.07138437,-1.762657614 a1.16202854,-1.16202854 0 0 0 1.086541264,-1.567103962 a1.15608466,-1.15608466 0 0 0 0.42795936,0.08261993200000001 c1.92135921,-1.464274838 4.450777344,-2.1026475500000004 6.992974820000001,-1.534412622 a9.064417,-9.064417 0 0 0 0.6835462,0.18515186200000003 c-2.512180882,-0.348311368 -5.1078732780000005,0.42201548 -7.033987592,1.9763401000000003 c0.05884441200000001,0.138492404 0.09094136400000002,0.29125012 0.09094136400000002,0.450843298 a1.16202854,-1.16202854 0 0 0 -1.160839764,1.160839764 a1.16500048,-1.16500048 0 0 0 -0.4160716,-0.07727044000000001 c-0.435092016,0.5842834040000001 -0.7905360400000001,1.229788772 -1.05206676,1.9258171200000003 c0.914763132,0.9857924980000001 2.037562064,1.7653323600000002 3.2914235499999998,2.2340072980000003 c-0.0029719400000000006,-0.05943880000000001 -0.008915820000000001,-0.11887760000000001 -0.008915820000000001,-0.17980237000000004 c0,-1.9326525820000002 1.5662123799999998,-3.4994593500000004 3.4994593500000004,-3.4994593500000004 c1.732046632,0 3.1663048760000003,1.259508172 3.4462616240000004,2.9119068120000002 c0.864240152,-0.5498089 1.632189448,-1.255941844 2.268778996,-2.070847792 a1.040179,-1.040179 0 0 0 -0.24072714000000003,-0.662445426 c0,-0.5816086580000001 0.47194407200000005,-1.053255536 1.05355273,-1.053255536 c0.082322738,0 0.161376342,0.011887760000000002 0.23834958800000003,0.029719400000000003 c0.323347072,-0.6645257840000001 0.5646686,-1.368875564 0.7233701960000001,-2.0952177 c-3.0224629800000002,-2.2378708200000004 -8.870349318,-1.932355388 -8.870349318,-1.932355388 s-4.653463652,-0.24280749800000004 -7.803720052,1.2927939 c0.21011615800000003,1.5156893999999999 0.816094724,2.96302418 1.7100542760000002,4.18449152 m14.704267538,-1.2045272820000001 c0.21397968000000003,0.19258171200000004 0.35068892,0.468674938 0.35068892,0.7786482800000001 c0,0.5816086580000001 -0.47194407200000005,1.05355273 -1.05355273,1.05355273 a1.040179,-1.040179 0 0 0 -0.17296690800000003,-0.017534446000000006 a8.52649586,-8.52649586 0 0 0 -2.5436834459999997,2.5582459520000005 a8.51758004,-8.51758004 0 0 0 4.099196842,1.842899994 c0.8544327500000001,-1.5305491000000002 1.342722492,-3.294098296 1.342722492,-5.171769988 c0,-1.4265312 -0.630942862,-2.476814796 -1.5834496320000002,-3.24535848 a8.47300094,-8.47300094 0 0 0 -0.43895553800000003,2.201018764 m-12.69166977,9.866840800000002 c0.520981082,-1.43841896 1.4265312,-2.7297268900000002 2.638488332,-3.710169896 a3.47122592,-3.47122592 0 0 0 -0.434497628,-0.79350798 a8.48191676,-8.48191676 0 0 0 -3.801408454,-2.405488236 l-0.024369908000000006,0.09629085600000002 a7.673549080000001,-7.673549080000001 0 0 1 -0.13106255400000003,2.551113296 c0.70732172,0.13195413600000003 1.24375689,0.7519008200000001 1.24375689,1.498452148 a1.5186613400000002,-1.5186613400000002 0 0 0 -0.4909644880000001,1.119529798 a9.19221042,-9.19221042 0 0 1 1.0000578100000002,1.6434828200000002 m-0.25647842200000004,0.844922542 c-0.6241074000000001,-0.6181635200000001 -1.143008124,-1.3275655979999998 -1.546003188,-2.1011615800000003 a1.5305491000000002,-1.5305491000000002 0 0 0 -0.23181132000000002,0.019317610000000006 c-0.8428421840000001,0 -1.52609119,-0.6835462 -1.52609119,-1.5257939960000002 a1.52460522,-1.52460522 0 0 0 0.8609710180000001,-1.371847504 a8.46111318,-8.46111318 0 0 0 0.14176153800000002,-2.8869425160000004 c0.05943880000000001,-0.27876797200000003 0.138492404,-0.550997676 0.22586744000000006,-0.8172835 c-0.93021722,-1.360554132 -1.474676628,-3.005522922 -1.474676628,-4.777690744 c0,-0.06478829200000001 0.0029719400000000006,-0.12868500200000002 0.004457910000000001,-0.19258171200000004 c-1.5715618720000002,0.7875641000000001 -2.749936082,2.02983502 -2.749936082,3.9841827640000003 c0,4.3241727 2.582021472,8.04206964 6.28713907,9.704572876000002 l0.008024238000000003,-0.03506889200000001 m9.0198379,-5.454104288 c-0.47551040000000006,1.361742908 -1.7733565980000003,2.3398083620000003 -3.2988534,2.3398083620000003 a3.48311368,-3.48311368 0 0 0 -2.159708798,-0.74892888 c-1.226519638,0.955181516 -2.152278948,2.2571884300000002 -2.7175419360000004,3.713141836 c0.25350648200000003,0.27341848 0.52454741,0.5304912900000001 0.809259262,0.7727044000000001 c0.858296272,0.22348988800000005 1.758496898,0.34325907 2.687228148,0.34325907 c3.7357285800000004,0 7.019722280000001,-1.931761 8.917008776000001,-4.842776230000001 c-1.261291336,-0.8737503600000001 -2.724674592,-1.43841896 -4.237392052,-1.57661417 " stroke-width="0" id="svg_24"/></g><g clip-path="url(#G)" stroke-width="0" id="svg_25"><g clip-path="url(#H)" stroke-width="0" id="svg_26"><path d="M35.340855068,28.98046972199998 l3.2334707200000006,-0.7712184300000001 l-3.24535848,-0.16553705800000001 l2.6411630780000004,-2.0185416480000002 l-2.996904296,1.0743563100000002 l2.036670482,-2.822451418 l-2.81294121,1.8723222 l0.9807402,-3.3039056980000003 l-1.931761,2.7231886220000003 l-0.04398471200000001,-3.4415065200000003 l-1.271098738,3.0652589160000003 l-1.059793804,-3.101813778 l0.05735844200000001,3.6540002300000003 l-1.8316066220000002,-3.27507788 l0.99114199,3.477764188 l-2.971048418,-2.16060038 l2.3270290200000003,2.92438896 l-3.6852056,-1.3563934160000002 l2.9110152300000003,2.1537649180000003 l-3.7327566400000003,0.11471688400000002 l3.816565348,0.9849009160000001 l-3.819834482,0.8261993200000001 l3.770500278,0.27341848 l-3.1799758,2.0357789 l3.274186298,-1.186992836 l-2.271750936,2.87683792 l2.87089404,-2.3181132 l-1.033640732,3.863522 l2.216175658,-3.1419349679999997 l-0.31056773,3.7107642840000006 l1.258022202,-3.3642360800000004 l1.0707899820000002,3.535717018 l0.26034194400000005,-3.546416002 l1.589393512,3.02543492 l-0.9391330400000001,-3.46082413 l2.9104208419999997,2.2545136840000004 l-1.878860468,-2.8744603680000003 l3.193052336,1.244054084 l-2.44144871,-2.3992471620000004 l3.273889104,0.25737000400000004 z" fill="#fff" stroke-width="0" id="svg_27"/></g></g><g clip-path="url(#I)" stroke-width="0" id="svg_28"><g clip-path="url(#J)" opacity=".35" stroke-width="0" id="svg_29"><path d="M0.9201431820000003,35.16715721999998 c10.027325560000001,-10.027325560000001 18.035812278,-13.122601070000002 25.303988742,-14.5327866 c0.9617197840000001,-0.18723222000000003 1.143602512,-2.2883938 1.143602512,-2.2883938 s0.134628882,1.5477863520000001 0.807773292,1.7495810780000003 s1.547489158,-2.4227254879999998 1.547489158,-2.4227254879999998 s-0.8074760980000001,2.355559644 0,2.4904857200000006 s2.2883938,-2.2883938 2.2883938,-2.2883938 s-0.605384178,2.08630188 -0.20149753200000006,2.2206335680000002 s2.4221311,-3.0313787999999997 2.4221311,-3.0313787999999997 s-1.2113627439999999,2.08630188 -0.06716584400000002,2.2883938 s2.813535598,-1.4265312 2.813535598,-1.4265312 s-1.312408704,1.48745597 -0.727530912,1.692817024 c2.4904857200000006,0.8752363300000001 4.50546104,-2.3612063300000004 4.50546104,-2.3612063300000004 s-0.46659458000000004,1.4191013500000003 -1.6782545180000001,2.966887702 c2.62422302,0.6728472160000001 4.5767876,-3.28102176 4.5767876,-3.28102176 l-1.9495926400000003,3.9535717820000005 c1.0095680180000002,0.5388127220000001 5.04784009,-4.104843528 5.04784009,-4.104843528 s-2.08630188,3.6340882320000003 -3.2976646240000003,4.374101292 c0.6728472160000001,0.538515528 3.0955727040000003,-1.6149521960000002 3.0955727040000003,-1.6149521960000002 s-1.951672998,2.4221311 -1.2113627439999999,2.557057176 c1.0767338620000002,0.8749391360000001 5.046948508,-4.50843298 5.046948508,-4.50843298 s-1.547489158,3.162738548 -3.835585764,5.65262988 c1.9124433900000002,0.9569646800000001 6.662495092,-5.181874584 6.662495092,-5.181874584 s-0.134628882,1.951672998 -3.5669223880000005,5.0472457020000006 c2.55735437,-0.33642360800000004 5.8547218,-5.181874584 5.8547218,-5.181874584 s-1.2113627439999999,3.6340882320000003 -4.1054379160000005,6.191145408000001 c2.5112893,-0.26153072000000005 6.527569016,-6.460403172 6.527569016,-6.460403172 s-1.547489158,4.306935448000001 -4.7105249,6.796826780000001 c3.4994593500000004,0.7738931760000001 8.546705052,-4.44156433 8.546705052,-4.44156433 s-1.98525592,3.7015512700000004 -4.5767876,5.215754700000001 c2.894075172,1.1103167840000001 6.864587012,-3.4658764280000005 6.864587012,-3.4658764280000005 s-3.97051184,6.124276758 -10.296286130000002,5.8547218 c-2.075602896,-0.08826661800000002 -8.351151400000001,-6.296946472 -21.804529392,-5.787555956 C14.180047879999998,22.512636699999973 10.411627960000002,30.04650459999999 0.9192515999999991,35.16418528 " fill="#373535" stroke-width="0" id="svg_30"/></g><path d="M1.331162484,34.405448998 c10.027325560000001,-10.027325560000001 18.035515084,-13.122303876000002 25.303691548,-14.5327866 c0.9620169780000001,-0.18723222000000003 1.1441969,-2.2883938 1.1441969,-2.2883938 s0.134331688,1.5454088000000001 0.807773292,1.7495810780000003 s1.547489158,-2.4221311 1.547489158,-2.4221311 s-0.8074760980000001,2.355559644 0,2.489891332 s2.2883938,-2.2883938 2.2883938,-2.2883938 s-0.605384178,2.08630188 -0.20209192000000006,2.2206335680000002 s2.4227254879999998,-3.0313787999999997 2.4227254879999998,-3.0313787999999997 s-1.2113627439999999,2.08630188 -0.06716584400000002,2.2883938 s2.813535598,-1.4265312 2.813535598,-1.4265312 s-1.312408704,1.48745597 -0.727530912,1.692817024 c2.4904857200000006,0.8749391360000001 4.504569458000001,-2.3612063300000004 4.504569458000001,-2.3612063300000004 s-0.46659458000000004,1.4191013500000003 -1.6776601300000002,2.966887702 c2.62422302,0.67314441 4.5767876,-3.28102176 4.5767876,-3.28102176 L42.11034,20.135976282 c1.0095680180000002,0.5349492 5.0472457020000006,-4.104843528 5.0472457020000006,-4.104843528 s-2.085707492,3.6334938440000006 -3.297070236,4.373804098 c0.6728472160000001,0.538515528 3.0955727040000003,-1.6149521960000002 3.0955727040000003,-1.6149521960000002 s-1.951672998,2.4227254879999998 -1.2113627439999999,2.557057176 c1.0767338620000002,0.8752363300000001 5.046948508,-4.50843298 5.046948508,-4.50843298 s-1.5454088000000001,3.1630357420000004 -3.835585764,5.65262988 c1.9124433900000002,0.9569646800000001 6.662495092,-5.181874584 6.662495092,-5.181874584 s-0.134628882,1.9519701919999999 -3.5669223880000005,5.047542896 c2.55735437,-0.33672080200000004 5.8547218,-5.182171778000001 5.8547218,-5.182171778000001 s-1.2113627439999999,3.6340882320000003 -4.1054379160000005,6.1914426019999995 c2.5112893,-0.26153072000000005 6.527569016,-6.460403172 6.527569016,-6.460403172 s-1.547489158,4.306935448000001 -4.7105249,6.796826780000001 c3.4994593500000004,0.7738931760000001 8.546705052,-4.4412671360000004 8.546705052,-4.4412671360000004 s-1.98525592,3.700956882 -4.5767876,5.215160312000001 c2.894075172,1.1103167840000001 6.864587012,-3.4658764280000005 6.864587012,-3.4658764280000005 s-3.97051184,6.124276758 -10.296880518,5.8547218 c-2.0750085080000003,-0.08856381200000002 -8.353231758,-6.3005128 -21.804232198,-5.787555956 c-17.76625732,0.6728472160000001 -21.53467724,8.20998425 -31.023487272000004,13.324395796000001 " fill="#373535" stroke-width="0" id="svg_31"/></g><g clip-path="url(#K)" stroke-width="0" id="svg_32"><g clip-path="url(#L)" opacity=".35" stroke-width="0" id="svg_33"><path d="M0.6577208800000012,36.26380308 c5.299563408,2.65840033 10.145311578000001,-0.40358945200000007 16.252351084,1.317461002 c4.643061862,1.308842376 10.296286130000002,2.922308602 17.967754852,1.811694624 s14.233512242000002,-4.4412671360000004 17.363262256000002,-10.39733209 c0.975687902,-2.657805942 4.945902548,0.60627576 4.945902548,0.60627576 s-2.8934807840000003,-1.2113627439999999 -2.823343,-0.6389671 s4.340518370000001,2.557057176 4.340518370000001,2.557057176 s-3.86946588,-1.2113627439999999 -3.6340882320000003,-0.30313788 s4.844856588,4.54261029 4.844856588,4.54261029 s-5.215160312000001,-3.97051184 -5.65262988,-3.4325907000000004 s2.2206335680000002,2.725863368 2.2206335680000002,2.725863368 s-4.407981408,-2.725863368 -5.95576776,-1.921953598 c-1.113288724,0.577447942 4.5767876,4.311096164 4.5767876,4.311096164 s-3.7015512700000004,-2.826909328 -4.5767876,-2.08630188 s4.17260376,6.796826780000001 4.17260376,6.796826780000001 S48.9755214,35.960665199999966 48.404908920000004,36.26380308 s1.5810720800000002,3.2640817020000004 1.5810720800000002,3.2640817020000004 s-2.823343,-3.095869898 -3.599910922,-2.55735437 s4.037677684,8.579990780000001 4.037677684,8.579990780000001 s-5.215754700000001,-8.243567172 -7.368925230000001,-6.864587012 c3.38206772,7.419745404 2.119884802,8.479836402 2.119884802,8.479836402 s-0.431525688,-7.56953118 -4.64365625,-7.369222424 c-2.119884802,0.10104596000000003 1.0092708240000001,5.65262988 1.0092708240000001,5.65262988 s-2.8827818,-5.070724028000001 -4.79819713,-4.969678068 c3.53512263,6.686865 2.27502007,9.411242398 2.27502007,9.411242398 s0.5845805980000001,-5.713851844 -4.210050204000001,-8.89353045 c1.8167469220000003,1.6146550020000001 -1.1400361840000002,8.89353045 -1.1400361840000002,8.89353045 s2.601041888,-10.7287034 -1.9183872700000002,-8.6780648 c-0.714157182,0.32245549 -0.05052298000000001,5.350086388 -0.05052298000000001,5.350086388 s-0.9085220580000001,-5.754270228 -2.2705621600000003,-5.451132348 c-0.7943995620000001,0.17623604200000004 -5.047542896,7.974606602 -5.047542896,7.974606602 s3.48311368,-8.429016228 2.423022682,-8.075652562 c-0.772110012,0.25766719800000004 -2.220930762,3.735134192 -2.220930762,3.735134192 s0.7064301380000001,-3.4325907000000004 0,-3.6340882320000003 s-4.64365625,3.6340882320000003 -4.64365625,3.6340882320000003 s2.9273609,-3.4325907000000004 2.4227254879999998,-4.139020838 c-0.7649773559999999,-1.0707899820000002 -1.6642864,-1.1210157680000001 -2.72526898,-0.7064301380000001 c-1.5454088000000001,0.6033038199999999 -3.6337910380000005,3.4319963120000003 -3.6337910380000005,3.4319963120000003 s2.079169224,-2.8640585780000003 1.7157009619999999,-3.936928918 c-0.5833918220000001,-1.7237252 -6.561151938000001,3.3285728 -6.561151938000001,3.3285728 s3.5330422720000003,-3.3285728 2.72526898,-4.037974878 s-5.19197918,-0.4879925480000001 -6.561449132,-0.4918560700000001 c-4.037677684,-0.012482148000000004 -5.436867036000001,-0.95993662 -6.662495092,-1.9305722240000003 " fill="#373535" stroke-width="0" id="svg_34"/></g><path d="M0.4556289600000003,35.65812170800001 c5.299563408,2.65840033 10.145014384000001,-0.40358945200000007 16.252053890000003,1.3177581960000002 c4.643061862,1.3082479880000002 10.296583324,2.9220114080000004 17.968349240000002,1.81139743 s14.2355926,-4.44156433 17.362667868,-10.397034896000001 c0.975687902,-2.6581031360000003 4.945902548,0.605384178 4.945902548,0.605384178 s-2.8934807840000003,-1.21106555 -2.823343,-0.6389671 s4.340518370000001,2.557057176 4.340518370000001,2.557057176 s-3.86946588,-1.21106555 -3.6340882320000003,-0.302543492 s4.8454509759999995,4.542313096 4.8454509759999995,4.542313096 s-5.215754700000001,-3.97051184 -5.65262988,-3.4319963120000003 s2.220930762,2.72526898 2.220930762,2.72526898 s-4.408278602,-2.72526898 -5.95576776,-1.921953598 c-1.113585918,0.577745136 4.576193212,4.311096164 4.576193212,4.311096164 s-3.7015512700000004,-2.823343 -4.576193212,-2.08630188 s4.17260376,6.796826780000001 4.17260376,6.796826780000001 s-5.7209845,-6.1914426019999995 -6.292785756,-5.888601916000001 s1.581666468,3.263784508 1.581666468,3.263784508 s-2.826909328,-3.0955727040000003 -3.6005053100000004,-2.557057176 s4.037677684,8.579990780000001 4.037677684,8.579990780000001 s-5.215754700000001,-8.24416156 -7.368925230000001,-6.8642898180000005 c3.38206772,7.4194482100000005 2.119884802,8.479539208 2.119884802,8.479539208 s-0.431525688,-7.56953118 -4.64365625,-7.368925230000001 c-2.119884802,0.10104596000000003 1.0092708240000001,5.65262988 1.0092708240000001,5.65262988 s-2.8827818,-5.071021222 -4.797899935999999,-4.969975262 c3.5354198240000003,6.690431328000001 2.2747228760000002,9.411539592 2.2747228760000002,9.411539592 s0.5845805980000001,-5.714149038 -4.210050204000001,-8.893827644 c1.8167469220000003,1.6149521960000002 -1.1400361840000002,8.893827644 -1.1400361840000002,8.893827644 s2.601636276,-10.7287034 -1.917792882,-8.6780648 c-0.714157182,0.322752684 -0.05052298000000001,5.350086388 -0.05052298000000001,5.350086388 s-0.90941364,-5.75367584 -2.271156548,-5.451132348 c-0.7946967560000001,0.17623604200000004 -5.04784009,7.974606602 -5.04784009,7.974606602 s3.48311368,-8.429016228 2.423022682,-8.075355368 c-0.772110012,0.25707281000000004 -2.220930762,3.734539804 -2.220930762,3.734539804 s0.706727332,-3.4319963120000003 0,-3.6337910380000005 s-4.643359056,3.6337910380000005 -4.643359056,3.6337910380000005 s2.9273609,-3.4319963120000003 2.4221311,-4.138723644000001 c-0.7649773559999999,-1.0707899820000002 -1.6642864,-1.12042138 -2.72526898,-0.706132944 c-1.5454088000000001,0.6033038199999999 -3.6340882320000003,3.4316991180000005 -3.6340882320000003,3.4316991180000005 s2.079169224,-2.864355772 1.7159981560000002,-3.936928918 c-0.583689016,-1.7237252 -6.561151938000001,3.3285728 -6.561151938000001,3.3285728 s3.5330422720000003,-3.3285728 2.72526898,-4.037677684 s-5.19197918,-0.4879925480000001 -6.561449132,-0.4921532640000001 c-4.037677684,-0.012779342000000004 -5.436569842,-0.95993662 -6.6621978980000005,-1.9305722240000003 " fill="#373535" stroke-width="0" id="svg_35"/></g></g><path fill="#0bd50b" fill-opacity="1" stroke="#222222" stroke-opacity="1" stroke-width="2" stroke-dasharray="none" stroke-linejoin="round" stroke-linecap="butt" stroke-dashoffset="" fill-rule="nonzero" opacity="1" marker-start="" marker-mid="" marker-end="" d="M39.40579700469971,50.28985506296158 C39.40579700469971,43.66002080881793 44.77596275055606,38.28985506296158 51.40579700469971,38.28985506296158 C58.03563125884335,38.28985506296158 63.40579700469971,43.66002080881793 63.40579700469971,50.28985506296158 C63.40579700469971,56.919689317105224 58.03563125884335,62.28985506296158 51.40579700469971,62.28985506296158 C44.77596275055606,62.28985506296158 39.40579700469971,56.919689317105224 39.40579700469971,50.28985506296158 z" id="svg_36" class=""/></g></svg>