<svg xmlns="http://www.w3.org/2000/svg" height="64" width="64" style=""><rect id="backgroundrect" width="100%" height="100%" x="0" y="0" fill="none" stroke="none"/><g class="currentLayer" style=""><title>Layer 1</title><g fill-rule="evenodd" id="svg_1" class=""><path d="M36.624219837999995,9.351380087999999 c-0.5605138,-1.5370453099999999 -19.86693848,-9.04247068 -20.1129822,-8.2184426 c-3.5450678,0.92411983 -4.98784488,5.010119843999999 -7.42644388,7.598237719999999 l-5.415364042,-0.31010244 c-2.3854593800000004,3.067684748 -3.6372977979999996,6.2020488 -2.784952852,9.459580299999999 c3.0574935880000003,4.142415364 6.60678344,7.667392019999999 8.8189931,12.869979200000001 c0.174851188,2.4525754479999997 10.614821079999999,0.257181202 12.85250864,-0.228281984 c-3.056765648,2.1881876399999998 -5.71869664,5.5796601 -4.574811724,15.34788696 c1.044302724,4.587041116 1.7587030399999999,9.70853578 11.0210116,14.896564159999999 c1.2192995,0.682953308 3.742121158,1.470948358 5.302169371999999,2.045365812 c1.49191303,0.6842636 3.23642124,0.9655396159999999 8.15802358,-0.539549128 c2.847992456,-1.227525222 5.922883809999999,-1.9670394679999998 8.709802100000001,-3.191580136 l-3.349761498,0.15723504 c-4.61295578,0.10045572 -8.174766199999999,0.44448016399999996 -9.272499719999999,-0.8444103999999999 l-4.24534608,-7.3288999200000005 l2.474996,-4.807315760000001 c3.4253944639999996,0.35130384400000003 4.56236395,3.1291228839999996 7.581495100000001,4.186965292 l3.5585346899999997,-2.63623471 c10.336748,6.101301904 14.448153119999999,-3.86681728 15.626687979999998,-11.63029738 c-0.12578803200000002,-3.158677248 -6.8391418879999994,0.9899984 -6.4322234279999995,-0.48626391999999996 c0.157671804,-3.3954033359999998 -2.609956076,-7.83772998 -4.39821348,-11.29908468 l2.06953342,-8.00734 c0.9390426,-0.837131 -4.347257679999999,-9.74420484 -8.66394188,-10.85504128 c-3.78747182,-0.9754396 -9.49670524,3.8211026479999997 -9.49670524,3.8211026479999997 z" fill="#fdee21" stroke-width="0" id="svg_2"/><g fill="#c8c037" stroke-width="0" id="svg_3"><path d="M53.60414827799999,26.3704717 c0.036397,0.860133904 0.032902888,1.906256478 0.116033636,2.5587090999999997 c-0.014340418000000002,0.497765372 -0.387482462,0.5168374 -0.696201816,0.62020488 l2.01129822,0.7366752799999999 c0.399347884,0.67188862 0.720223836,1.343995622 1.0443755179999998,2.0159570359999996 c0.37598101,1.653006152 0.0946322,1.7002494579999998 -0.15468725,1.82203382 c-0.729905438,0.007424988 -1.4576998499999998,0.00873528 -2.137086252,-0.135688016 c0.30427891999999995,0.16065635799999997 0.37124939999999995,0.27770911 0.403497142,0.483497748 c0.059399904,0.37940232799999996 -0.18489676,0.89755002 -0.587229198,1.3967712719999998 c0.594872568,0.33004799599999995 1.67935758,0.6529621800000001 2.48518716,0.9594249199999999 l0.91866028,-2.045001842 c-0.41601771,-3.00420838 -1.67753773,-5.7725642 -3.40384744,-8.41280258 zm3.75398658,10.07687342 c1.115495256,0.464935278 2.6566170299999996,0.32866491 4.793339312,-0.772562722 c0.31774581,-0.225952576 0.61365342,-0.0909925 0.045132280000000004,0.280839252 c-2.802569,2.5148143179999995 -4.143944038,1.25678841 -4.838398798,0.49172347 z" stroke-width="0" id="svg_4"/><path d="M62.365634117999996,35.34524396 c0.33135828799999995,0.6344725039999999 0.130592436,1.1505091699999999 0.019363204000000002,1.6864185980000002 c-0.34598988199999997,2.7261353 -1.195495862,4.881274464 -2.86226008,7.133375236 c-5.421551532,8.71635356 -10.895077979999998,3.2624086979999998 -15.25907828,-0.287245124 l-1.805145612,4.523200778 c-0.095796904,0.39643612399999995 -0.4949992,0.705228272 2.324821978,1.946365972 l2.871868888,-2.028550398 c10.95258524,8.33345712 18.713881519999997,-11.66451056 14.71021152,-12.973346679999999 zm-16.78120082,7.788958 c-0.7388591,0.052702856000000006 -2.93796584,0.8005156179999999 -3.035946564,1.2335671240000001 l1.011982188,-1.507709328 zm-1.4369535599999999,-9.242654179999999 c0.13539684,0 0.785301672,0.174487218 0.71556502,0.135688016 c-0.09972778,-0.055541822000000005 -0.011137482,0.91138088 0.193413658,1.4151153600000002 l-0.792945042,1.7252177999999998 c1.5188468099999999,-1.751642022 3.9205392519999998,-1.6350988279999998 6.150073884,-1.860905816 l-1.063665928,-0.659076876 c0.18475117200000002,-0.6162740039999999 -0.0327573,-1.1039210099999999 -0.13539684,-1.6282561919999998 zm3.73214838,-5.19530778 c-1.629639278,0.499585222 -3.189541904,1.3157515499999999 -4.236829182,3.055600944 c0.7989869439999999,-2.8677196300000003 0.9618271219999999,-2.7588926 1.219809058,-2.900549724 c1.1173879,-0.49973081 2.032554068,-0.188245284 3.0170201239999996,-0.15505122 z" stroke-width="0" id="svg_5"/></g><path d="M39.177105418,62.30886949999999 c-1.97053358,2.17435678 -6.36729118,-0.16451443999999998 -10.01863822,-1.35688016 c-9.278323239999999,-5.899953699999999 -11.090893840000001,-11.454135899999999 -11.217555399999998,-16.9027668 c-0.477019082,-7.80497268 1.91957778,-12.34003888 4.951011115999999,-13.41375038 c-2.0062026399999997,3.8675452200000002 -2.9408776,10.809909 -2.01129822,15.972459479999998 c0.7508701099999999,2.8720872699999997 0.7665208199999999,7.716164 5.57201673,10.30908628 c2.353211638,1.3248507999999999 1.71575458,2.356196192 3.30703142,3.5969699219999995 c1.7437802699999998,1.35979192 6.605837118,2.652394978 9.41663184,1.794954452 zm2.94378936,-36.069427 c-3.3361490199999997,-4.73161 -8.029178199999999,-6.506837278 -13.31984612,-6.7009060819999995 c1.060462992,-0.3457715 2.120925984,-0.525718268 3.181388976,-1.037023324 c0.259656198,-0.272831912 0.1747056,-0.7529811359999999 0.07738002199999999,-1.240555348 c-5.09339618,-1.32994638 -8.30797922,-2.9736349 -12.37716382,-4.49721332 l10.9846146,2.63623471 c7.4177086,0.28185836799999997 6.781343452,2.113355408 11.45340796,10.8390266 zm3.57200158,-2.2820919 c-2.4655327799999998,-3.5195899 -4.8568156799999995,-7.79114182 -8.101972199999999,-10.507813899999999 c-7.83554616,-3.536623696 -15.58665128,-6.163176804 -24.669886599999998,-8.553295 l2.8991666379999996,-3.728217504 c9.639381479999999,2.200344238 18.6934992,5.882337552 26.8027508,11.952774799999998 c1.3721669,3.4693620399999996 2.28718748,6.943310102 3.0699413620000002,10.83684278 zm4.97037432,-6.21951936 s-1.382212472,-3.1010244 -2.0551930019999998,-4.285091604 c-1.561140124,-1.7300222040000002 -2.3512462,-4.953922876 -5.547849122,-6.472988067999999 c1.011254248,0.2729775 1.7033795999999999,-0.05226609200000001 3.7678174399999995,1.819267648 l3.25170798,6.168126795999999 zm1.71939428,5.3721972 c0.31883772,-2.686680952 0.92411983,-6.9955034 0.229446688,-8.698883 L46.785752679999995,6.64912122 c-0.32247741999999996,-0.300129662 -0.55469028,-0.7075576800000001 -0.8080134,-1.025230696 c2.7370544,0.709304736 5.5949468399999995,2.612867836 9.4486612,10.127829219999999 z" fill="#fcf6a0" stroke-width="0" id="svg_6"/><path d="M40.872477677999996,23.42741028 c-1.09045412,-0.8589692 -2.0622540199999997,-3.894479 -3.71467782,-4.5248750399999995 c-1.5286739999999999,-0.127971852 -2.09027971,-0.609140192 -4.101505136,-0.19945556 c0.72939588,-0.36542588 1.418172708,-0.833200124 2.193574396,-1.08353869 c0.52520871,-0.123968182 1.017878502,0.013394096000000001 1.518992398,0.082475602 c0.12374980000000001,-0.058526376000000005 0.204842316,-0.131247582 0.17456001200000001,-0.241166522 c-2.0245467280000002,-1.251110478 -6.1777356039999995,-1.2689450079999998 -8.981323719999999,-1.9831269419999997 c3.2538918,0.10889982399999999 6.853991864,-0.07133811999999999 9.2994335,0.7133812 c1.9663843220000001,1.745090562 2.605151672,5.03152128 3.6109463699999997,7.2368155100000005 zm5.9618286000000005,-14.638363841999999 c0.4513228,0.040983022 2.8807497559999997,3.883778282 2.994890748,4.523200778 c0.20200335,1.397790388 0.70027828,2.964754032 0.83421924,4.42733108 c-0.40014861799999996,-1.40274038 -0.836111884,-2.8052623779999997 -1.381193356,-4.207929964 c-0.1601468,-0.38624496399999997 -0.562260856,-1.259481788 -1.6820509579999998,-2.49465038 c-0.521423422,-0.87061624 -0.6333078,-1.55487984 -0.7657928799999999,-2.2478787199999997 zm8.2330014,20.929949262 H54.0272998 l1.14868932,0.301512748 zm-7.09159148,-1.0373145 c-1.045176252,-0.12848141000000002 -2.1183054,-0.145588 -3.1627537119999998,0.084149864 c-0.425990488,0.57216084 -0.45532647,1.154221664 -0.641533522,1.69209653 c1.270546476,-1.400265384 1.77471772,-1.4858711279999999 3.8042144399999995,-1.7761736 zm14.254521079999998,7.226260379999999 c-0.582352,0.46420733799999997 -0.639713672,0.90118972 -2.3594719219999996,1.4247241679999998 c-1.2540950320000002,0.296562756 -1.96252624,-0.20600701999999999 -2.55288558,-0.8819721039999999 c0.894929436,0.25638046800000003 1.03804244,0.9317632 3.43769665,0.174487218 zm-5.212050399999999,0.291176 c-0.4185655,1.151018728 -0.8698883,2.3148492 -1.3248507999999999,3.3922004 c-1.083393102,1.270546476 -0.6216607599999999,0.546537352 -2.2435110799999998,2.519909898 c0.51902122,-0.800588412 1.1938216,-1.5698754039999998 1.547163676,-2.4036578800000004 c0.2474996,-0.549012348 0.557092482,-1.131437142 0.6938724079999999,-1.6192297359999999 c-0.429994158,-0.2147423 -1.310292,-0.23170330199999997 -1.42967416,-0.15468725 c-1.4419035519999999,0.850452302 -1.702069308,1.750477318 -2.55215764,2.6268442839999997 c0.616128416,-0.98490282 1.142356242,-2.059924612 1.85661097,-2.946409944 c0.08138369200000001,-0.11501452 0.610232102,-0.13728948400000002 0.9354028999999999,-0.20527908 c-0.5051903600000001,-0.0873528 -1.440302084,-0.26824589 -1.51557108,-0.260020168 c-0.940644068,0.22602537 -1.467745422,1.04532184 -2.166058264,1.5895297839999998 c0.5091212359999999,-0.735073812 0.9780601839999999,-1.5004299280000002 1.6245436979999999,-2.132281848 c0.06391313200000001,-0.07424988 1.8113331019999999,0.078763108 2.7169632559999997,0.44018531799999994 l0.017980118,0.3603303 l0.514144022,0.2074629 l0.386827316,-0.969179316 zm-11.4104595,6.93945202 c-0.232067272,-0.0800734 -2.2820919,-0.3421318 -2.2820919,-0.28098484 c-0.7871215220000001,0.560222624 -0.906503682,1.09627764 -0.88954268,1.560412184 c1.310292,-1.288235418 1.2607920799999999,-1.2918751179999999 3.171780168,-1.2793545499999999 zm-1.5577915999999998,-9.2666762 s1.4793196679999998,-0.215688622 1.4504932439999998,-0.07752561 c-0.107152768,0.5131977 0.181111472,1.764017002 0.21277686199999998,1.5895297839999998 l-0.8315986559999999,0.67844008 c1.741669244,-0.8757118199999999 3.575131722,-0.699695928 5.4345088640000005,-0.8334912999999999 c0,0 -1.565580558,-0.43225077199999995 -1.469856448,-0.44586325 c0.349265612,-0.04949992000000001 -0.092957938,-1.63276942 -0.21277686199999998,-1.6669825999999999 c0.2984554,-0.10081969 0.5886850779999999,-0.17688942000000002 0.88954268,-0.252012828 c-2.238852264,-0.585846112 -3.53342076,-0.240656964 -5.473235272,1.0079785179999998 z" stroke-width="0" id="svg_7"/><path d="M56.853672438,34.97690632 l-0.328810498,0.164732822 c-0.04658816000000001,-0.96306462 -1.0809909,-0.89245444 -1.9533541959999998,-0.901335308 l-0.71556502,-0.174487218 c0.218382,0.201348204 0.89027062,0.18562469999999998 0.6188945880000001,0.62020488 c-0.22835477799999998,0.122075538 -0.33339652,0.64568278 -0.464134544,1.085504128 l-0.386827316,0.019363204000000002 l2.069387832,0.8141280959999999 l0.4440434,0.067844008 l1.063665928,-0.5718696639999999 z" stroke-width="0" id="svg_8"/><path d="M47.04832063799999,34.327583839999996 c-0.166479878,-0.32939285 -1.004120436,-0.282586308 -1.18472235,-0.06951827000000001 c-0.14675270399999998,0.17324972 -0.00909925,1.2842317479999998 0.17907324,1.096859992 c0.272031178,-0.23912829 0.627338692,-0.33922004 1.05405712,-0.319856836 c0.05386756000000001,-0.20527908 0.034722738,-0.42693681 -0.04833521600000001,-0.7075576800000001 zm8.0328179,1.65533556 c0.078763108,-0.0582352 0.24531578,-0.614599742 0.19144821999999997,-0.781298002 c-0.110064528,-0.393305982 -0.8889603279999999,-0.310539204 -0.8889603279999999,-0.310539204 c-0.1892644,0.111811584 -0.3566906,0.72502824 -0.28717233000000003,0.92739556 c0.03312127,0.171284282 0.8589692,0.225879782 0.984611644,0.16451443999999998 z" fill="#fff" stroke-width="0" id="svg_9"/><path d="M21.772787958000002,55.203447159999996 l0.49208744,0.04804404000000001 c2.91685558,1.43222195 7.7198037,3.555768518 14.67308658,2.41457698 l1.0910364719999999,1.716773696 c-3.0622251979999997,1.488054948 -6.3557897279999995,1.1456319719999999 -9.441381799999998,1.250018568 zm-4.18783882,-11.32237876 l1.461193962,6.134204792 c3.91194956,2.445368842 10.59443876,5.246263579999999 16.16463564,5.0202382100000005 l-1.2302186,-2.8244071999999996 c-11.627385619999998,-2.46917248 -12.61083256,-5.5905792 -16.394664679999998,-8.33054536 zm3.6360603,-12.5642444 c0.7133812,4.753593788000001 1.667492158,8.3567512 5.8016818,11.37624632 c2.533522376,1.82203382 5.048263899999999,3.6363514759999997 8.10706778,5.133724056 c0,0 -0.268173096,1.3954609800000002 -0.492305822,1.37071102 c-9.102889699999999,-1.0118366 -15.767180399999999,-8.55911852 -16.575193799999997,-12.006642359999999 c0.78180756,-2.64460602 1.9035630999999997,-4.29630188 3.1592596,-5.873966242 zm4.3749194,-2.693378 c1.213039216,5.268538544 4.105363218,10.60462992 6.9809446,15.44543092 c1.053838738,1.33722578 1.3296552039999998,1.92722115 2.95398052,2.74142204 c2.19546704,0.6951827 3.747871884,0.517710928 5.3414053379999995,0.413178744 c-0.436618412,-0.808158988 -0.8247560199999999,-1.6528605639999998 -1.326088298,-2.41239316 c-3.568216292,-2.82185941 -1.919141016,-5.39112364 -0.9713631359999999,-7.017778364 c-1.984073264,-0.501332278 -4.61295578,-1.5668908499999998 -4.97510593,-2.968393732 c-0.582352,-4.53288238 -0.286589978,-5.97092785 0.29627158000000003,-8.298516 c-2.6860986,0.566482908 -5.4085942,1.127870236 -8.298516,2.09792308 z" stroke-width="0" id="svg_10"/><path d="M15.740349178,0.638375052 c-0.8829912200000001,0.57689245 -1.733807492,1.401721264 -2.6497015999999998,2.3392351899999997 c-1.517245342,1.57053055 -2.5259518,3.1024802799999995 -4.07027651,4.2383578559999995 c-0.30886494200000003,0.26642604 -1.1756231,0.6951827 -2.26534928,0.7588774500000001 c-0.513343288,0.025623488000000003 -0.8477589240000001,0.11064688 -1.791023576,-0.007861752000000001 c-0.831889832,-0.45044927199999996 -1.62221429,-0.157526216 -2.39346672,0.7643369999999999 c-0.8458662800000001,1.2156597999999998 -1.9169571959999998,3.5259229779999997 -2.362383682,4.9791096 c-0.9172043999999999,3.7079079779999997 1.42239476,6.762926569999999 3.666924956,9.1174485 c1.99673942,1.950588024 3.147830942,3.1695963480000002 3.96763697,4.957780958 c0.6207144379999999,1.159826802 1.080554136,2.7516131999999995 1.578392302,3.8675452200000002 c0.179510004,0.35377884000000004 0.142166682,0.35195898999999997 0.6260283999999999,0.45860219999999996 c1.043356402,0.22274964 2.49064671,0.224423902 3.7791005099999997,0.335143576 c0.557456452,0.007788958 1.32303095,-0.012957332 2.04842316,-0.088590298 c0.99946162,-0.18875484199999998 2.173847222,-0.37365160199999997 3.1580948959999997,-0.7133812 c0.9618271219999999,-0.236871676 1.81875809,-0.56488144 2.591248018,-0.866758158 c-0.09972778,0.338055336 -0.8355295319999999,0.66351731 -1.111418792,1.092055588 c-2.6184001799999996,3.748891 -3.335639462,7.0834385520000005 -2.87973064,12.3458624 c0.257836348,2.332465348 0.7931634240000001,4.26609237 1.600885648,6.478447618 c0.36957513799999997,1.012418952 1.156114308,2.615779596 1.909823384,3.68082861 c2.2420552,3.166975764 7.255523567999999,7.233830955999999 14.23559464,8.79933872 c1.21784362,0.166479878 2.59983771,0.077671198 3.89957458,-0.268464272 c3.445048844,-1.044302724 10.46632132,-3.51413035 10.46632132,-3.51413035 s-6.23262228,0.5155999019999999 -9.086875019999999,0.23337756399999998 c-0.6608239319999999,-0.10336748 -1.38890952,-0.13830859999999998 -1.84933157,-0.5886850779999999 c-0.07716164,-0.09972778 -0.35770971599999996,-0.664754808 -0.17659824400000002,-0.669850388 c0.24713563,-0.006915430000000002 0.956658748,-0.30136715999999997 2.0527908,-0.399056708 c-2.33887122,-0.25186724 -2.30538598,-0.248809892 -2.4761607039999998,-0.67480038 c-0.26547971800000003,-0.6613334900000001 -0.67188862,-1.565216588 -1.090235738,-2.356123398 c1.027705692,0.0873528 3.303100544,0.214451124 4.075299296,-0.582570382 c0,0 -1.346470618,0.155487984 -2.536361342,0.015869092 c-0.40087655799999994,-0.04702492400000001 -1.0846306,-0.29081203 -1.2884537999999999,-0.36615382 c-0.5341623719999999,-0.208045252 -0.97398372,-0.272686324 -1.076477672,-0.40764639999999996 c-0.185479112,-0.47214188399999996 -0.31119435,-0.630905598 -0.5350359,-1.263412664 c-0.303259804,-0.8374221759999999 -0.327281824,-1.7715875779999999 -0.3858082,-2.626625902 c0.778386242,0.9594249199999999 1.770204492,1.76707435 3.083262664,2.17945236 c0.01674262,-0.035523472 1.7033795999999999,0.7331811679999999 2.928211444,0.337909748 l0.254779,-0.08189325 c0,0.021838200000000002 -0.8115075119999999,0.071119738 -1.109162178,-0.07621531799999999 c-2.49101068,-1.05878873 -2.86589978,-1.985529144 -3.26808663,-2.4458784000000002 l-1.075676938,-1.6111496019999998 c0.32713623599999997,-0.6522342400000001 0.51210579,-0.6769842 0.946322,-0.683098896 c1.310292,0.145588 1.881579312,0.25769076 2.679328758,0.065223424 c0.53903957,1.10938056 0.684700364,2.2253125799999998 1.91193441,3.032743628 c4.088547804,1.213621568 4.97692578,-0.3603303 5.967142561999999,-1.751205258 c2.941751128,2.158924452 7.7307228,2.824625582 11.0574086,0.03748891 c4.228312283999999,-4.892630328 5.566993944,-12.605736979999998 5.19203205,-13.046140679999999 c-0.5280476759999999,-0.895875758 -1.2209009679999998,-1.81985 -1.81584633,-1.69209653 c-2.12048922,0.5788578879999999 -2.90229678,1.65460762 -5.00349559,1.4092918399999999 c0.250265772,-0.014122036000000003 0.6711606800000001,-0.020891878000000003 0.674290822,-0.044768310000000006 c0.161893856,-1.77908536 -0.01310292,-2.640019998 -0.09113808799999999,-2.7877918179999996 c-0.63767544,-1.406161698 -1.47480644,-2.885990924 -2.0584687319999997,-3.9949347200000003 c-0.150465198,-0.23002904 -0.592324778,-1.97744901 -1.332712552,-2.667754512 c-0.317527428,-0.27115765 -1.0948217599999999,-0.986067524 -1.0948217599999999,-0.986067524 l-0.06587857,0.7599693599999999 s0.30384215600000003,0.04586022000000001 0.419439028,0.516619018 c0.438365468,1.7846904979999998 2.670593478,6.00441309 2.834452772,6.206634822 c0.791125192,1.2771707300000001 0.08043737,2.8680836 0.681861398,3.7607564219999996 c0.057798436,0.113413052 1.2270884579999999,-0.009972778 2.133373758,0.045714632000000005 c1.4903115619999998,-0.32051198200000003 1.4267624,-0.977332244 2.7147794359999997,-1.076040908 c0.867194922,-0.066460922 0.954183752,1.56215924 0.9426822999999999,1.688529624 c-0.16160268,1.798302976 -0.7086495899999999,3.889165038 -1.545853384,5.798624452 c-1.740650128,3.3536195799999997 -3.6906558,6.3655441239999995 -6.45464398,6.785565503999999 c-3.372254844,0.58926743 -5.1246976,-0.8850294519999999 -6.952700527999999,-1.8238536699999999 l-0.6993319579999999,0.596401242 c-2.375777778,2.365805 -5.1974916,2.155721516 -6.350548559999999,-0.9354028999999999 c-0.5750726,-1.199135562 -1.322812568,-1.9341365799999999 -1.9636909439999999,-2.9627158000000002 l-3.398606272,2.4478438380000003 c-0.282877484,0.5801681799999999 -0.63076001,1.4951887599999998 -1.05332918,2.51721652 c-0.29379658399999997,0.71046944 -0.54013148,1.9308608499999997 -0.5241168,2.944954064 c-0.43567209,0.74213483 1.50901962,3.751948348 2.7370544,5.582717448 l1.0627924,1.542723242 c0.243714312,0.6320703019999999 0.77743992,1.1901819 0.809760456,1.258171496 c2.281145578,2.975236368 -2.87754682,2.29009924 -3.943032598,2.111026 c-2.101999544,-0.33485239999999994 -4.1579932799999995,-1.212966422 -6.09067398,-2.387060848 l-0.33521637000000004,-0.20731731199999998 c-2.2966507,-1.446125604 -4.40986052,-3.296330702 -6.206707615999999,-5.126371862 c-1.071382092,-1.213184804 -2.091517208,-3.699900638 -2.845007902,-5.46282573 c-1.129253322,-4.238503444 -2.7498661440000003,-11.5851651 1.640194408,-17.15245022 c0.278291462,-0.318255368 0.578566712,-0.8480501 0.83421924,-0.9536013999999999 c1.3043228919999998,-0.8822632799999999 2.72067575,-1.4835417199999998 4.243744612,-1.817375004 l-0.153740928,-0.987305022 c-0.7606972999999999,0.172812956 -3.321808602,1.109598942 -4.0458905199999995,1.5017402199999998 c-1.646818662,0.477383052 -3.012798072,0.975876364 -5.11159468,1.5013762499999999 c-0.682225368,0.083494718 -1.353386048,0.084950598 -2.0076585199999997,-0.003858082000000001 c-1.5097475599999999,-0.205133492 -4.083306636,-0.021838200000000002 -4.2475299,-0.17441442399999998 c-1.022318936,-1.4256704900000001 -1.3030125999999997,-3.980084744 -2.234994182,-5.347156064 l-0.010919100000000001,-0.013612478 l-0.011792628000000001,-0.012957332 c-0.5437711799999999,-0.73085176 -1.177588538,-1.32703462 -1.8017970879999998,-1.9472395 c-2.235358152,-2.220217 -4.149258,-4.36764 -4.684148312,-6.643908379999999 c-0.1346689,-0.67188862 -0.481459516,-1.3685272 -0.297145108,-3.3558034 l0.0034213180000000004,-0.009754396 l0.003202936000000001,-0.009754396 c0.537802072,-1.857193322 1.4127131579999999,-3.3703621999999998 2.897637964,-4.8883354820000005 c1.545271032,0.024968342000000004 3.07481856,0.0582352 4.266237958,0.286517184 c0.545955,0.091429264 1.6832884559999999,0.23992902400000002 2.857310088,0.677275376 c2.971596668,1.106978358 6.89795944,2.9263188 6.89795944,2.9263188 c-2.947283472,-1.618647384 -6.24281344,-3.72086531 -8.3239939,-4.145108742 c-0.30966567599999995,-0.043821988000000006 -0.499949192,-0.185115142 -0.5918152200000001,-0.43166841999999994 c3.1301419999999998,-1.839067616 3.70266681,-4.00367 5.761426718,-5.946250684000001 c0.94086245,-0.409539044 1.3077442099999999,-0.6186034119999999 2.107167918,-0.705519448 c7.393686579999999,1.1690716399999999 12.047407,4.11395291 15.730783399999998,6.083103404 c1.49446082,0.812672216 2.8535248,1.4271991640000001 4.15034991,2.1672957619999997 c1.137333456,0.37416115999999994 4.56927938,2.965190796 5.573836579999999,4.362180449999999 c1.020353498,2.1543384299999997 1.7652545,4.481417022 2.44478649,6.7261656 c0.487210242,2.28391175 0.9145838159999999,3.2103609879999997 0.9145838159999999,3.2103609879999997 s-0.41405227200000005,-1.910332942 -0.34504356,-2.253556652 c0.42933901199999996,0.160437976 1.44423296,0.477310258 1.86498228,0.42802872 c0,0 -1.879395492,-0.971508724 -2.1255848,-1.83004116 c-0.7902516639999999,-2.755034518 -1.5828327359999999,-7.04391141 -1.7965559199999999,-7.267534578 c-0.602297556,-0.7570576 -3.113908938,-2.679983904 -4.65444836,-3.56908982 c-0.582788764,-0.33630828 -0.897768402,-0.545008678 -0.92229998,-0.692853292 c0.49208744,-0.49718302 1.0991894,-1.15487681 1.6449988119999999,-1.572787164 c0.522442538,-0.400585382 0.9972777999999999,-0.8516897999999999 1.726164122,-1.122701862 c3.2002426219999998,-1.4413212 5.0300654,0.554544692 5.464354404,0.15039240399999998 c0,0 -0.688485652,-0.78908696 -0.382678058,-0.659222464 c0.31315978799999994,0.16961002 1.333804462,0.369647932 1.4458344280000002,0.473161 c1.1663782619999998,0.912399996 4.215718922,4.247093136 6.053549039999999,7.765663920000001 c0.441422816,0.8618809599999999 0.6209328199999999,1.4293829839999999 0.416090504,2.467207042 c-0.20527908,1.0387703799999999 -0.364115588,1.609984898 -0.588029932,2.3037117179999997 c-0.202221732,0.46369778 -1.346543412,3.638826472 -1.342102978,4.065399311999999 c-0.23053859799999998,1.742106008 0.747157616,3.923087042 0.747157616,3.923087042 c0.009244838,-0.5920336019999999 -0.036397,-0.9074500039999999 0.017252178,-1.330819908 l0.065805776,-0.756548042 s-0.041710962000000004,-0.201202616 -0.03421318,-0.28098484 c0.04964550800000001,-0.523170478 0.17798133000000002,-0.96306462 0.215615828,-1.2626119299999998 c0.367464112,-2.27517647 1.0061586679999999,-3.91304147 1.73067735,-5.909562508 c0.215324652,-0.503880068 0.497037432,-0.7839913799999999 0.48262422,-1.16761576 c0.011865422000000002,-0.680769488 -0.59727477,-1.594479776 -1.037460088,-2.4868614219999996 c-0.4440434,-0.9026456 -0.9754396,-1.9073483880000002 -1.67135024,-2.9670834399999997 c-1.58836508,-2.283984544 -2.94233348,-4.071004449999999 -5.42169712,-5.1902121999999995 c-0.69372682,-0.30442450800000004 -3.42350182,-0.60200638 -4.36618412,-0.42511696 c-1.1428657999999998,0.238254762 -2.12704068,0.473161 -2.91176,0.975294012 c-1.2338582999999999,0.7901060759999999 -2.20347438,2.01348204 -3.3412445999999996,2.73414264 c-2.51576064,-1.258025908 -3.72996456,-2.199543504 -3.9563539,-2.329408 c-1.4951887599999998,-0.801170764 -3.2902888,-1.7308957319999998 -5.2215136200000005,-2.6133045999999998 c-0.92593968,-0.863482428 -6.6752098,-2.9287210019999996 -11.941127759999999,-3.340662248 zm32.18077152,46.9230124 c-1.5505122,-1.2120201 -2.8557086199999997,-2.4604372 -3.7161337,-3.7445233599999996 c-0.280839252,1.511057852 -1.300392016,2.587244348 -2.088314272,3.6457419019999997 c-0.15687107,0.2474996 -0.269920152,0.58671964 0.502424188,1.66552672 c0.20819084000000002,0.287390712 0.9613903580000001,0.33652666200000003 1.469856448,0.31010244 c-0.5172741639999999,-0.39104936799999995 -1.3043228919999998,-0.804592082 -1.43113004,-1.163029738 c0.909925,0.618749 1.752588344,0.797603858 2.514159172,0.697803284 c0.1747056,-0.01965438 0.39017584,-0.20411437600000001 0.55723807,-0.488156564 c0.33951121599999995,-0.72939588 0.60528211,-0.905047802 0.8738919700000001,-1.10137322 l0.6188945880000001,0.7752561 z" stroke="#000" stroke-width="0.008298516" id="svg_11"/></g><path fill="#0bd50b" fill-opacity="1" stroke="#222222" stroke-opacity="1" stroke-width="2" stroke-dasharray="none" stroke-linejoin="round" stroke-linecap="butt" stroke-dashoffset="" fill-rule="nonzero" opacity="1" marker-start="" marker-mid="" marker-end="" d="M37.4256407036231,49.769230618079504 C37.4256407036231,42.416914370255355 43.18250432566941,36.4615382095178 50.28974336523275,36.4615382095178 C57.3969824047961,36.4615382095178 63.1538460268424,42.416914370255355 63.1538460268424,49.769230618079504 C63.1538460268424,57.121546865903646 57.3969824047961,63.07692302664121 50.28974336523275,63.07692302664121 C43.18250432566941,63.07692302664121 37.4256407036231,57.121546865903646 37.4256407036231,49.769230618079504 z" id="svg_12" class=""/></g></svg>