<svg xmlns="http://www.w3.org/2000/svg" height="256" preserveAspectRatio="xMidYMid" width="256"><rect id="backgroundrect" width="100%" height="100%" x="0" y="0" fill="none" stroke="none"/><g class="currentLayer" style=""><title>Layer 1</title><rect height="256" rx="18" width="256" id="svg_1"/><g id="svg_2"><path d="m230.118,128.531 c0,7.047 -5.713,12.76 -12.761,12.76 c-7.047,0 -12.76,-5.713 -12.76,-12.76 c0,-7.048 5.713,-12.761 12.76,-12.761 c7.048,0 12.761,5.713 12.761,12.761 " fill="#669cfe" id="svg_3"/><path d="m203.806,154.531 c0,7.047 -5.713,12.76 -12.761,12.76 s-12.761,-5.713 -12.761,-12.76 c0,-7.048 5.713,-12.761 12.761,-12.761 s12.761,5.713 12.761,12.761 " fill="#3fe7fe" id="svg_4"/><path d="m177.451,181.072 c0,7.048 -5.713,12.761 -12.76,12.761 c-7.048,0 -12.761,-5.713 -12.761,-12.761 c0,-7.047 5.713,-12.76 12.761,-12.76 c7.047,0 12.76,5.713 12.76,12.76 " fill="#fff" id="svg_5"/><path d="m202.993,102.336 c0,6.597 -5.348,11.944 -11.944,11.944 c-6.597,0 -11.945,-5.347 -11.945,-11.944 s5.348,-11.945 11.945,-11.945 c6.596,0 11.944,5.348 11.944,11.945 " fill="#669cfe" id="svg_6"/><path d="m176.738,128.298 c0,6.597 -5.348,11.945 -11.944,11.945 c-6.597,0 -11.945,-5.348 -11.945,-11.945 s5.348,-11.945 11.945,-11.945 c6.596,0 11.944,5.348 11.944,11.945 " fill="#3fe7fe" id="svg_7"/><path d="m150.56900000000002,154.642 c0,6.597 -5.347,11.945 -11.944,11.945 s-11.945,-5.348 -11.945,-11.945 s5.348,-11.944 11.945,-11.944 s11.944,5.347 11.944,11.944 " fill="#fff" id="svg_8"/><path d="m175.743,76.235 c0,5.991 -4.857,10.849 -10.849,10.849 s-10.849,-4.8580000000000005 -10.849,-10.849 c0,-5.992 4.857,-10.849 10.849,-10.849 s10.849,4.857 10.849,10.849 " fill="#669cfe" id="svg_9"/><path d="m149.522,102.191 c0,5.991 -4.8580000000000005,10.849 -10.85,10.849 c-5.991,0 -10.849,-4.8580000000000005 -10.849,-10.849 c0,-5.992 4.8580000000000005,-10.85 10.849,-10.85 c5.992,0 10.85,4.8580000000000005 10.85,10.85 " fill="#3fe7fe" id="svg_10"/><path d="m123.253,128.618 c0,5.992 -4.857,10.849 -10.849,10.849 s-10.849,-4.857 -10.849,-10.849 c0,-5.991 4.857,-10.849 10.849,-10.849 s10.849,4.8580000000000005 10.849,10.849 " fill="#fff" id="svg_11"/><path d="m148.618,50.007999999999996 c0,5.386 -4.366,9.752 -9.752,9.752 s-9.752,-4.366 -9.752,-9.752 c0,-5.3870000000000005 4.366,-9.753 9.752,-9.753 s9.752,4.366 9.752,9.753 " fill="#669cfe" id="svg_12"/><path d="m122.297,76.089 c0,5.386 -4.366,9.753 -9.752,9.753 s-9.752,-4.367 -9.752,-9.753 s4.366,-9.752 9.752,-9.752 s9.752,4.366 9.752,9.752 " fill="#3fe7fe" id="svg_13"/><path d="m96.06,102.471 c0,5.386 -4.367,9.752 -9.753,9.752 s-9.752,-4.366 -9.752,-9.752 s4.366,-9.753 9.752,-9.753 s9.753,4.367 9.753,9.753 " fill="#fff" id="svg_14"/><g fill="#6a9efe" id="svg_15"><path d="m95.06,154.721 c0,4.787 -3.882,8.668 -8.669,8.668 c-4.788,0 -8.669,-3.8810000000000002 -8.669,-8.668 c0,-4.788 3.8810000000000002,-8.669 8.669,-8.669 c4.787,0 8.669,3.8810000000000002 8.669,8.669 " id="svg_16"/><path d="m121.185,180.846 c0,4.787 -3.882,8.668 -8.669,8.668 c-4.788,0 -8.669,-3.8810000000000002 -8.669,-8.668 c0,-4.788 3.8810000000000002,-8.669 8.669,-8.669 c4.787,0 8.669,3.8810000000000002 8.669,8.669 " id="svg_17"/><path d="m147.268,206.929 c0,4.788 -3.8810000000000002,8.669 -8.669,8.669 s-8.669,-3.8810000000000002 -8.669,-8.669 s3.8810000000000002,-8.669 8.669,-8.669 s8.669,3.8810000000000002 8.669,8.669 " id="svg_18"/><path d="m95.185,206.929 c0,4.788 -3.882,8.669 -8.669,8.669 c-4.788,0 -8.669,-3.8810000000000002 -8.669,-8.669 s3.8810000000000002,-8.669 8.669,-8.669 c4.787,0 8.669,3.8810000000000002 8.669,8.669 " id="svg_19"/><path d="m42.601,206.929 c0,4.788 -3.8810000000000002,8.669 -8.669,8.669 c-4.787,0 -8.669,-3.8810000000000002 -8.669,-8.669 s3.882,-8.669 8.669,-8.669 c4.788,0 8.669,3.8810000000000002 8.669,8.669 " id="svg_20"/><path d="m68.726,180.804 c0,4.788 -3.8810000000000002,8.669 -8.669,8.669 c-4.787,0 -8.669,-3.8810000000000002 -8.669,-8.669 s3.882,-8.669 8.669,-8.669 c4.788,0 8.669,3.8810000000000002 8.669,8.669 " id="svg_21"/></g><path d="m95.172,50.032 c0,5.003 -4.056,9.059 -9.059,9.059 s-9.059,-4.056 -9.059,-9.059 c0,-5.004 4.056,-9.06 9.059,-9.06 s9.059,4.056 9.059,9.06 " fill="#3fe7fe" id="svg_22"/><path d="m68.799,76.538 c0,5.004 -4.056,9.06 -9.06,9.06 c-5.003,0 -9.059,-4.056 -9.059,-9.06 c0,-5.003 4.056,-9.059 9.059,-9.059 c5.004,0 9.06,4.056 9.06,9.059 " fill="#fff" id="svg_23"/><path d="m41.174,49.663 c0,4.037 -3.273,7.3100000000000005 -7.3100000000000005,7.3100000000000005 c-4.036,0 -7.309,-3.273 -7.309,-7.3100000000000005 c0,-4.036 3.273,-7.309 7.309,-7.309 c4.037,0 7.3100000000000005,3.273 7.3100000000000005,7.309 " fill="#fff" id="svg_24"/></g><path fill="#0bd50b" fill-opacity="1" stroke="none" stroke-opacity="1" stroke-width="1" stroke-dasharray="none" stroke-linejoin="miter" stroke-linecap="butt" stroke-dashoffset="" fill-rule="nonzero" opacity="1" marker-start="" marker-mid="" marker-end="" d="M146.9999988079071,203.00000125169754 C146.9999988079071,173.71823329589643 171.38950157033804,150.00000125169754 201.4999988079071,150.00000125169754 C231.61049604547617,150.00000125169754 255.9999988079071,173.71823329589643 255.9999988079071,203.00000125169754 C255.9999988079071,232.28176920749866 231.61049604547617,256.00000125169754 201.4999988079071,256.00000125169754 C171.38950157033804,256.00000125169754 146.9999988079071,232.28176920749866 146.9999988079071,203.00000125169754 z" id="svg_25" class=""/><path fill="#0bd50b" fill-opacity="1" stroke="none" stroke-opacity="1" stroke-width="1" stroke-dasharray="none" stroke-linejoin="miter" stroke-linecap="butt" stroke-dashoffset="" fill-rule="nonzero" opacity="1" marker-start="" marker-mid="" marker-end="" d="M170,176 C170,171.02762430939225 175.5939226519337,167 182.5,167 C189.4060773480663,167 195,171.02762430939225 195,176 C195,180.97237569060775 189.4060773480663,185 182.5,185 C175.5939226519337,185 170,180.97237569060775 170,176 Z" id="svg_27"/></g></svg>