<svg xmlns="http://www.w3.org/2000/svg" width="64" height="64" style=""><rect id="backgroundrect" width="100%" height="100%" x="0" y="0" fill="none" stroke="none"/><g class="currentLayer" style=""><title>Layer 1</title><g id="svg_1" class=""><g stroke-width="0" id="svg_2"><g fill="#5b87da" stroke-width="0" id="svg_3"><circle r="1.465000033378601" cy="75.63092803955078" cx="61.68690490722656" transform="matrix(1.4401291681269364,-1.4401797949235429,1.4401797949235429,1.4401291681269364,-162.6567,-15.833655) " stroke-width="0" id="svg_4"/><circle r="1.6269999742507935" cy="81.3249282836914" cx="61.68590545654297" transform="matrix(1.4401291681269364,-1.4401797949235429,1.4401797949235429,1.4401291681269364,-162.6567,-15.833655) " stroke-width="0" id="svg_5"/><circle cy="87.01892852783203" cx="61.68590545654297" r="1.7899999618530273" transform="matrix(1.4401291681269364,-1.4401797949235429,1.4401797949235429,1.4401291681269364,-162.6567,-15.833655) " stroke-width="0" id="svg_6"/><circle cy="92.70793151855469" cx="61.68590545654297" r="1.9520000219345093" transform="matrix(1.4401291681269364,-1.4401797949235429,1.4401797949235429,1.4401291681269364,-162.6567,-15.833655) " stroke-width="0" id="svg_7"/></g><g fill="#1edcff" stroke-width="0" id="svg_8"><circle r="1.3020000457763672" cy="69.93892669677734" cx="55.995906829833984" transform="matrix(1.4401291681269364,-1.4401797949235429,1.4401797949235429,1.4401291681269364,-162.6567,-15.833655) " stroke-width="0" id="svg_9"/><circle r="1.465000033378601" cy="75.63392639160156" cx="55.99490737915039" transform="matrix(1.4401291681269364,-1.4401797949235429,1.4401797949235429,1.4401291681269364,-162.6567,-15.833655) " stroke-width="0" id="svg_10"/><circle r="1.6269999742507935" cy="81.32192993164062" cx="55.99490737915039" transform="matrix(1.4401291681269364,-1.4401797949235429,1.4401797949235429,1.4401291681269364,-162.6567,-15.833655) " stroke-width="0" id="svg_11"/><circle r="1.7899999618530273" cy="87.01393127441406" cx="55.995906829833984" transform="matrix(1.4401291681269364,-1.4401797949235429,1.4401797949235429,1.4401291681269364,-162.6567,-15.833655) " stroke-width="0" id="svg_12"/><circle cy="92.70993041992188" cx="55.9939079284668" r="1.9520000219345093" transform="matrix(1.4401291681269364,-1.4401797949235429,1.4401797949235429,1.4401291681269364,-162.6567,-15.833655) " stroke-width="0" id="svg_13"/></g><circle r="1.1399999856948853" cy="64.25492858886719" cx="50.30490493774414" transform="matrix(1.4401291681269364,-1.4401797949235429,1.4401797949235429,1.4401291681269364,-162.6567,-15.833655) " stroke-width="0" id="svg_14"/><circle r="1.3020000457763672" cy="69.93892669677734" cx="50.30490493774414" transform="matrix(1.4401291681269364,-1.4401797949235429,1.4401797949235429,1.4401291681269364,-162.6567,-15.833655) " stroke-width="0" id="svg_15"/><circle r="1.465000033378601" cy="75.63693237304688" cx="50.30390548706055" transform="matrix(1.4401291681269364,-1.4401797949235429,1.4401797949235429,1.4401291681269364,-162.6567,-15.833655) " stroke-width="0" id="svg_16"/><circle r="1.6269999742507935" cy="81.32792663574219" cx="50.30390548706055" transform="matrix(1.4401291681269364,-1.4401797949235429,1.4401797949235429,1.4401291681269364,-162.6567,-15.833655) " stroke-width="0" id="svg_17"/><circle cy="87.01892852783203" cx="50.30290603637695" r="1.7899999618530273" transform="matrix(1.4401291681269364,-1.4401797949235429,1.4401797949235429,1.4401291681269364,-162.6567,-15.833655) " stroke-width="0" id="svg_18"/><circle cy="92.7049331665039" cx="50.30390548706055" r="1.9520000219345093" transform="matrix(1.4401291681269364,-1.4401797949235429,1.4401797949235429,1.4401291681269364,-162.6567,-15.833655) " stroke-width="0" id="svg_19"/></g><g fill="#5b87da" stroke-width="0" id="svg_20"><circle r="4.11899995803833" transform="matrix(0.4552766746949771,-0.4552926796479491,0.4552926796479491,0.4552766746949771,-125.15523182979176,122.28912460660187) " cy="64.36490631103516" cx="251.6301727294922" stroke-width="0" id="svg_21"/><circle r="4.11899995803833" transform="matrix(0.4552766746949771,-0.4552926796479491,0.4552926796479491,0.4552766746949771,-133.35079953508605,118.89411528690941) " cy="77.09391021728516" cx="238.90118408203125" stroke-width="0" id="svg_22"/><circle r="4.11899995803833" transform="matrix(0.4552766746949771,-0.4552926796479491,0.4552926796479491,0.4552766746949771,-141.54391370131236,115.50502427493771) " cy="89.82290649414062" cx="226.17117309570312" stroke-width="0" id="svg_23"/><circle r="4.11899995803833" transform="matrix(0.4552766746949771,-0.4552926796479491,0.4552926796479491,0.4552766746949771,-136.74569423584543,127.0912369073894) " cy="89.82390594482422" cx="251.6301727294922" stroke-width="0" id="svg_24"/><circle r="4.11899995803833" transform="matrix(0.4552766746949771,-0.4552926796479491,0.4552926796479491,0.4552766746949771,-131.9426830306011,138.6877305032932) " cy="89.82490539550781" cx="277.08819580078125" stroke-width="0" id="svg_25"/><circle r="4.11899995803833" transform="matrix(0.4552766746949771,-0.4552926796479491,0.4552926796479491,0.4552766746949771,-128.55023725440384,130.48469680288184) " cy="77.09391021728516" cx="264.35919189453125" stroke-width="0" id="svg_26"/></g></g><path fill="#0bd50b" fill-opacity="1" stroke="none" stroke-opacity="1" stroke-width="1" stroke-dasharray="none" stroke-linejoin="miter" stroke-linecap="butt" stroke-dashoffset="" fill-rule="nonzero" opacity="1" marker-start="" marker-mid="" marker-end="" d="M36.5,50.5 C36.5,43.0414364640884 42.76519337016575,37 50.5,37 C58.23480662983425,37 64.5,43.0414364640884 64.5,50.5 C64.5,57.9585635359116 58.23480662983425,64 50.5,64 C42.76519337016575,64 36.5,57.9585635359116 36.5,50.5 z" id="svg_27" class=""/></g></svg>