<svg xmlns="http://www.w3.org/2000/svg" width="257" height="271" preserveAspectRatio="xMidYMid" style=""><rect id="backgroundrect" width="100%" height="100%" x="0" y="0" fill="none" stroke="none" style="" class=""/><g class="currentLayer" style=""><title>Layer 1</title><path d="M246.18626922607422,108.308 h-85.09 a7.738,7.738 0 0 1 -7.735,-7.734 v-88.68 C153.36126922607423,5.327 148.0362692260742,0 141.47226922607422,0 h-30.375 c-6.568,0 -11.89,5.327 -11.89,11.894 v88.143 c0,4.573 -3.697,8.29 -8.27,8.31 l-27.885,0.133 c-4.612,0.02500000000000001 -8.359,-3.717 -8.35,-8.325 l0.17300000000000001,-88.241 C54.890269226074224,5.337 49.563269226074226,0 42.98626922607423,0 H12.63626922607422 C6.067269226074217,0 0.7462692260742188,5.327 0.7462692260742188,11.894 V260.21 c0,5.834 4.726,10.56 10.555,10.56 H246.18626922607422 c5.834,0 10.56,-4.726 10.56,-10.56 V118.868 c0,-5.834 -4.726,-10.56 -10.56,-10.56 zm-39.902,93.233 c0,7.6450000000000005 -6.198,13.844 -13.843,13.844 H168.43626922607422 c-7.646,0 -13.844,-6.199 -13.844,-13.844 v-24.005 c0,-7.646 6.198,-13.844 13.844,-13.844 h24.005 c7.6450000000000005,0 13.843,6.198 13.843,13.844 v24.005 z" fill="#F60" id="svg_1" class=""/></g></svg>