<svg xmlns="http://www.w3.org/2000/svg" width="57" height="74.66666666666663" style=""><rect id="backgroundrect" width="100%" height="100%" x="0" y="0" fill="none" stroke="none" style="" class=""/>
    <defs>
        <style>
            .cls-1{fill:#cdcccc;}.cls-2{fill:#fff;}.cls-3{fill:#dd00a1;}.cls-4{fill:#f9d8d2;}.cls-5{fill:#10110e;}.cls-6{fill:#e5e5e5;}.cls-7{fill:#8accce;opacity:0.2;}.cls-8{fill:#515151;}
        </style>
    </defs>
    
<g class="currentLayer" style=""><title>Layer 1</title><g id="Layer_2" data-name="Layer 2" class="">
        <g id="Layer_3" data-name="Layer 3">
            <path class="cls-1" d="M47.75666674613953,33.33666674613953 a3,3 0 0 0 -6,0 A2.7600000000000002,2.7600000000000002 0 0 0 43.666666746139526,35.886666746139525 v4.57 a15.27,15.27 0 0 0 -6.91,-7.85 c0.46,-1 0.93,-1.86 1.3800000000000001,-2.6500000000000004 a65.83,65.83 0 0 1 5.67,-7.24 c1.13,-1.34 2.2,-2.6 3.07,-3.7 c2.44,-3.06 5.12,-7.58 4.62,-10.26 a2.56,2.56 0 0 0 -1.25,-1.81 c-3.39,-2 -8,4.5 -12.53,10.77 c-3,4.14 -4.55,10 -5.26,13.29 a19.86,19.86 0 0 0 -4.23,-0.46 a18.63,18.63 0 0 0 -6.08,1 a85.14,85.14 0 0 1 0.3300000000000002,-11 c1,-9.51 0.56,-15.09 -1.29,-17 A2.43,2.43 0 0 0 19.22666674613953,2.6666667461395264 C13.766666746139528,2.9366667461395264 14.386666746139525,19.246666746139525 14.476666746139529,21.106666746139528 c0.22000000000000008,4.46 2,9.88 3.08,12.88 a15.44,15.44 0 0 0 -5.25,7.8100000000000005 H11.916666746139526 a3.11,3.11 0 0 0 -3.25,3 v5.17 a3.12,3.12 0 0 0 3.25,3 h0.6600000000000005 A13.34,13.34 0 0 0 15.866666746139526,57.596666746139526 l-1,0.8800000000000003 a1.17,1.17 0 0 0 -0.13,1.6400000000000001 c3,3.6500000000000004 7.91,5.74 13.42,5.74 s10.44,-2.09 13.42,-5.74 a1.17,1.17 0 0 0 -0.13,-1.6400000000000001 l-1,-0.8800000000000003 a13.56,13.56 0 0 0 3.29,-4.71 h0.7500000000000003 a3.12,3.12 0 0 0 3.25,-3 V44.75666674613953 a2.94,2.94 0 0 0 -1.9100000000000001,-2.68 V35.886666746139525 A2.75,2.75 0 0 0 47.75666674613953,33.33666674613953 z" id="svg_1"/>
            <path class="cls-2" d="M23.28666674613953,58.40666674613953 c0.92,-0.6100000000000003 -1.5,-0.38000000000000017 -1.7000000000000002,-0.79 a16.49,16.49 0 0 1 -2.8600000000000003,-0.51 c-1.7000000000000002,-0.45 -5.78,-3.19 -6.22,-5.82 S12.506666746139526,43.666666746139526 14.346666746139526,40.666666746139526 a17.21,17.21 0 0 1 4.38,-4.7 s-3.5700000000000003,-8.49 -3.87,-14.9 S15.056666746139527,3.2466667461395264 19.236666746139527,3.0466667461395263 s3.5700000000000003,10.48 2.8600000000000003,17.43 a90.59,90.59 0 0 0 -0.2,13.88 a19.73,19.73 0 0 1 5.5,-0.92 a21.12,21.12 0 0 1 4.9,0.46 s1.33,-9.84 5.71,-16 s9,-12.45 12,-10.66 s-0.8200000000000003,8.18 -3.47,11.51 s-7.24,8.33 -8.77,11 a46.59,46.59 0 0 0 -2.6500000000000004,5.51 a14.93,14.93 0 0 1 6.39,6.32 C43.666666746139526,45.886666746139525 43.82666674613952,51.18666674613953 42.666666746139526,53.43666674613953 a8.08,8.08 0 0 1 -5.61,4 c-1.33,0.06000000000000003 -6.92,1.45 -6.92,1.45 z" id="svg_2"/>
            <path class="cls-3" d="M33.07666674613952,33.98666674613953 s3.34,-8.71 6.33,-13.6 s7,-8.59 8.26,-7.84 s-2.5700000000000003,5.32 -5.93,9.81 a113.44,113.44 0 0 0 -7.43,12.38 z" id="svg_3"/>
            <path class="cls-3" d="M19.666666746139526,35.47666674613953 l1,-0.7400000000000003 s-0.14,-8.71 0,-14 s0.41000000000000014,-11.9 -1.36,-11.84 s-3,5.17 -2.31,12.38 A87.47,87.47 0 0 0 19.666666746139526,35.47666674613953 z" id="svg_4"/>
            <circle class="cls-4" cx="16.68666648864746" cy="52.206668853759766" r="1.940000057220459" id="svg_5"/>
            <circle class="cls-4" cx="39.616668701171875" cy="52.206668853759766" r="1.940000057220459" id="svg_6"/>
            <path class="cls-5" d="M31.36666674613953,52.04666674613953 a0.18000000000000008,0.18000000000000008 0 0 0 -0.25,0.07 s-0.5800000000000003,1 -1.42,1.06 a2.09,2.09 0 0 1 -1.5,-0.7000000000000003 V50.996666746139525 c0.54,-0.30000000000000016 1.4100000000000001,-1.2 1.4100000000000001,-1.51 a1.4100000000000001,1.4100000000000001 0 0 0 -1.49,-1.09 c-1,0 -1.7000000000000002,0.6500000000000004 -1.7000000000000002,1.19 s1.1,1.24 1.4100000000000001,1.44 v1.46 a1.82,1.82 0 0 1 -1.31,0.6900000000000006 c-0.79,0 -1.3900000000000001,-1.08 -1.4,-1.09 a0.19000000000000009,0.19000000000000009 0 0 0 -0.25,-0.08000000000000004 a0.2,0.2 0 0 0 -0.08000000000000004,0.26 s0.7100000000000003,1.29 1.73,1.29 a2.12,2.12 0 0 0 1.51,-0.7300000000000003 a2.37,2.37 0 0 0 1.58,0.7300000000000003 h0.12000000000000002 a2.49,2.49 0 0 0 1.71,-1.26 A0.18000000000000008,0.18000000000000008 0 0 0 31.36666674613953,52.04666674613953 z" id="svg_7"/>
            <path class="cls-6" d="M18.72666674613953,35.98666674613953 s-2.77,-7 -3.3,-10.66 s-1,-9.77 -0.30000000000000016,-13.84 A50,50 0 0 1 16.346666746139526,5.926666746139526 S15.056666746139527,15.416666746139526 15.536666746139527,19.566666746139525 S18.72666674613953,35.98666674613953 18.72666674613953,35.98666674613953 z" id="svg_8"/>
            <path class="cls-6" d="M32.29666674613952,33.89666674613953 s2,-10.59 4.91,-14.75 S43.72666674613953,9.936666746139526 45.55666674613953,8.666666746139526 l1.83,-1.28 s-7.34,7.7 -10.18,14 S32.29666674613952,33.89666674613953 32.29666674613952,33.89666674613953 z" id="svg_9"/>
            <path class="cls-5" d="M20.666666746139526,45.89666674613952 a1.52,1.52 0 1 0 1.51,1.52 A1.52,1.52 0 0 0 20.666666746139526,45.89666674613952 zm0.43000000000000016,1.4100000000000001 a0.41000000000000014,0.41000000000000014 0 0 1 -0.41000000000000014,-0.41000000000000014 a0.41000000000000014,0.41000000000000014 0 0 1 0.8200000000000003,0 A0.41000000000000014,0.41000000000000014 0 0 1 21.076666746139527,47.30666674613953 z" id="svg_10"/>
            <path class="cls-5" d="M35.58666674613953,45.89666674613952 a1.52,1.52 0 1 0 1.52,1.52 A1.52,1.52 0 0 0 35.58666674613953,45.89666674613952 zm0.43000000000000016,1.4100000000000001 a0.42000000000000015,0.42000000000000015 0 0 1 -0.41000000000000014,-0.41000000000000014 a0.42000000000000015,0.42000000000000015 0 0 1 0.8300000000000003,0 A0.42000000000000015,0.42000000000000015 0 0 1 36.01666674613953,47.30666674613953 z" id="svg_11"/>
            <ellipse class="cls-7" cx="28.396665573120117" cy="47.98666763305664" rx="14.100000381469727" ry="10.15999984741211" id="svg_12"/>
            <path class="cls-2" d="M45.46666674613952,42.33666674613953 V35.666666746139526 a2.45,2.45 0 0 0 1.92,-2.2800000000000002 a2.6500000000000004,2.6500000000000004 0 0 0 -5.27,0 A2.44,2.44 0 0 0 44.026666746139526,35.666666746139526 V42.166666746139526 h-0.19000000000000009 c-2,-6.94 -7.91,-11.25 -15.620000000000001,-11.25 S14.556666746139527,35.18666674613953 12.586666746139528,42.166666746139526 H11.916666746139526 A2.75,2.75 0 0 0 9.036666746139527,44.75666674613953 v5.17 a2.75,2.75 0 0 0 2.88,2.58 h0.91 a13.11,13.11 0 0 0 3.6,5.09 l-1.3,1.1600000000000001 a0.79,0.79 0 0 0 -0.09000000000000007,1.12 c2.92,3.5300000000000002 7.71,5.6 13.13,5.6 s10.21,-2 13.13,-5.6 a0.79,0.79 0 0 0 -0.09000000000000007,-1.12 l-1.3,-1.1600000000000001 a13.34,13.34 0 0 0 3.6,-5.09 h1 a2.75,2.75 0 0 0 2.88,-2.58 V44.75666674613953 A2.62,2.62 0 0 0 45.46666674613952,42.33666674613953 zM28.216666746139524,38.286666746139524 c7.14,0 12.94,4.7 12.94,10.47 c0,6.25 -6.52,9 -12.94,9 s-12.94,-2.8 -12.94,-9 C15.276666746139526,42.98666674613953 21.076666746139527,38.286666746139524 28.216666746139524,38.286666746139524 z" id="svg_13"/>
            <path class="cls-8" d="M45.94666674613953,48.19666674613953 H44.026666746139526 c0,-0.30000000000000016 0,-0.6000000000000003 0,-0.9400000000000003 a19.35,19.35 0 0 0 -0.38000000000000017,-3.8 h0.81 a1.35,1.35 0 0 1 1.44,1.3 z" id="svg_14"/>
            <path class="cls-8" d="M44.50666674613953,51.21666674613952 h-1 a16.69,16.69 0 0 0 0.43000000000000016,-2.15 h2 v0.8600000000000003 A1.34,1.34 0 0 1 44.50666674613953,51.21666674613952 z" id="svg_15"/>
            <path class="cls-8" d="M28.216666746139524,64.14666674613952 c-4.8,0 -9.06,-1.73 -11.75,-4.79 l1.35,-1.2 a17.86,17.86 0 0 0 10.4,3 a17.89,17.89 0 0 0 10.4,-3 l1.34,1.2 C37.276666746139526,62.416666746139526 33.00666674613953,64.14666674613952 28.216666746139524,64.14666674613952 z" id="svg_16"/>
            <path class="cls-8" d="M11.916666746139526,43.456666746139526 h0.8600000000000003 a19.66,19.66 0 0 0 -0.38000000000000017,3.8 a6.18,6.18 0 0 0 0,0.9400000000000003 H10.526666746139526 V44.75666674613953 A1.28,1.28 0 0 1 11.916666746139526,43.456666746139526 z" id="svg_17"/>
            <path d="M28.216666746139524,37.426666746139524 a17.4,17.4 0 0 0 -4.8,0.6900000000000006 V32.90666674613952 a17.14,17.14 0 0 1 4.8,-0.6500000000000004 a17.12,17.12 0 0 1 4.79,0.6500000000000004 v5.25 A16,16 0 0 0 28.216666746139524,37.426666746139524 z" id="svg_18"/>
            <path class="cls-8" d="M22.466666746139527,33.206666746139526 V38.46666674613952 C17.666666746139526,40.22666674613953 14.316666746139525,44.19666674613953 14.316666746139525,48.75666674613953 C14.316666746139525,54.666666746139526 19.926666746139524,58.666666746139526 28.216666746139524,58.666666746139526 s13.9,-4 13.9,-9.91 c0,-4.5600000000000005 -3.36,-8.53 -8.15,-10.29 V33.206666746139526 c5.61,2 9.11,7.19 9.11,14.09 c0,7.76 -5.95,13 -14.86,13 s-14.86,-5.21 -14.86,-13 C13.356666746139528,40.39666674613952 16.856666746139524,35.22666674613953 22.466666746139527,33.206666746139526 z" id="svg_19"/>
            <path class="cls-8" d="M10.476666746139525,49.066666746139525 h2 a15.15,15.15 0 0 0 0.43000000000000016,2.15 h-1 a1.35,1.35 0 0 1 -1.44,-1.29 z" id="svg_20"/>
            <ellipse class="cls-8" cx="44.74666976928711" cy="33.336666107177734" rx="1.2000000476837158" ry="1.0800000429153442" id="svg_21"/>
        </g>
    </g></g></svg>